<svg width="18" height="18" viewBox="0 0 18 18" fill="none" xmlns="http://www.w3.org/2000/svg">
<g clip-path="url(#clip0_2972_3509)">
<path d="M6.18742 16.9583C4.821 16.4739 3.60246 15.6456 2.6493 14.5532C1.69614 13.4609 1.04053 12.1413 0.745676 10.7219C0.45083 9.30242 0.5267 7.83092 0.965969 6.44933C1.40524 5.06772 2.19309 3.82262 3.25354 2.83407C4.314 1.84553 5.61127 1.14689 7.02027 0.80556C8.42925 0.46422 9.90247 0.49169 11.2977 0.885315C12.693 1.27895 13.9633 2.02545 14.9862 3.05284C16.009 4.08023 16.75 5.35385 17.1374 6.75086" stroke="#F90653" stroke-width="1.5" stroke-linecap="round" stroke-linejoin="round"/>
<path d="M3.75 15.6L4.5 11.8125H5.31C5.48106 11.8131 5.64994 11.7741 5.80346 11.6987C5.95698 11.6232 6.09098 11.5133 6.195 11.3775C6.30215 11.2448 6.37636 11.0887 6.41156 10.9218C6.44675 10.755 6.44194 10.5821 6.3975 10.4175L5.835 8.1675C5.77606 7.9236 5.63672 7.70663 5.43945 7.55153C5.24218 7.3964 4.99844 7.31222 4.7475 7.3125H0.75" stroke="#F90653" stroke-width="1.5" stroke-linecap="round" stroke-linejoin="round"/>
<path d="M15.7499 3.9375H12.6899C12.439 3.93722 12.1952 4.0214 11.998 4.1765C11.8007 4.3316 11.6614 4.54858 11.6024 4.7925L11.1074 6.75" stroke="#F90653" stroke-width="1.5" stroke-linecap="round" stroke-linejoin="round"/>
<path d="M11.25 14.0625H8.4375V16.875" stroke="#F90653" stroke-width="1.5" stroke-linecap="round" stroke-linejoin="round"/>
<path d="M17.0023 14.61C16.7056 15.4816 16.1292 16.2307 15.3628 16.741C14.5964 17.2512 13.6829 17.494 12.7644 17.4315C11.8458 17.3691 10.9735 17.005 10.2833 16.3957C9.59302 15.7865 9.12329 14.9662 8.94727 14.0625" stroke="#F90653" stroke-width="1.5" stroke-linecap="round" stroke-linejoin="round"/>
<path d="M14.625 11.8125H17.4375V9" stroke="#F90653" stroke-width="1.5" stroke-linecap="round" stroke-linejoin="round"/>
<path d="M8.87207 11.2492C9.16877 10.3776 9.74515 9.6284 10.5115 9.11818C11.2779 8.60795 12.1913 8.36518 13.1099 8.42758C14.0285 8.49005 14.9007 8.85418 15.591 9.4634C16.2813 10.0727 16.751 10.8929 16.9271 11.7967" stroke="#F90653" stroke-width="1.5" stroke-linecap="round" stroke-linejoin="round"/>
</g>
<defs>
<clipPath id="clip0_2972_3509">
<rect width="18" height="18" fill="white"/>
</clipPath>
</defs>
</svg>
