<svg width="18" height="18" viewBox="0 0 18 18" fill="none" xmlns="http://www.w3.org/2000/svg">
<g clip-path="url(#clip0_2972_3519)">
<path d="M6.36922 8.4488L5.57422 11.631L8.75571 10.8353L13.5287 6.06228L11.1422 3.67578L6.36922 8.4488Z" stroke="#F90653" stroke-width="1.5" stroke-linecap="round" stroke-linejoin="round"/>
<path d="M16.3132 3.27734L17.1083 4.07234C17.2128 4.17682 17.2958 4.30088 17.3523 4.43741C17.4089 4.57395 17.438 4.7203 17.438 4.86809C17.438 5.0159 17.4089 5.16224 17.3523 5.29878C17.2958 5.43532 17.2128 5.55937 17.1083 5.66384L14.625 8.14635" stroke="#F90653" stroke-width="1.5" stroke-linecap="round" stroke-linejoin="round"/>
<path d="M13.5281 6.06239L16.3129 3.27839C16.5238 3.06741 16.6423 2.78132 16.6423 2.48301C16.6423 2.1847 16.5238 1.89861 16.3129 1.68764L15.5171 0.891888C15.3061 0.68098 15.0201 0.5625 14.7217 0.5625C14.4235 0.5625 14.1373 0.68098 13.9264 0.891888L11.1416 3.67514" stroke="#F90653" stroke-width="1.5" stroke-linecap="round" stroke-linejoin="round"/>
<path d="M14.0625 10.6875V16.3125C14.0625 16.6108 13.944 16.897 13.733 17.108C13.522 17.319 13.2358 17.4375 12.9375 17.4375H1.6875C1.38914 17.4375 1.10298 17.319 0.892005 17.108C0.681026 16.897 0.5625 16.6108 0.5625 16.3125V5.0625C0.5625 4.76414 0.681026 4.47798 0.892005 4.26701C1.10298 4.05603 1.38914 3.9375 1.6875 3.9375H7.3125" stroke="#F90653" stroke-width="1.5" stroke-linecap="round" stroke-linejoin="round"/>
</g>
<defs>
<clipPath id="clip0_2972_3519">
<rect width="18" height="18" fill="white"/>
</clipPath>
</defs>
</svg>
