<svg width="18" height="18" viewBox="0 0 18 18" fill="none" xmlns="http://www.w3.org/2000/svg">
<g clip-path="url(#clip0_2972_3500)">
<path d="M0.5625 12.9375H12.5032C12.7691 12.9375 13.0264 12.8434 13.2294 12.6717C13.4325 12.5001 13.5682 12.2621 13.6125 12L15.5903 1.5C15.6346 1.23786 15.7703 0.999885 15.9734 0.82827C16.1764 0.65666 16.4336 0.562504 16.6995 0.5625H17.4375" stroke="#F90653" stroke-width="1.5" stroke-linecap="round" stroke-linejoin="round"/>
<path d="M2.25 16.0312C2.25 16.4042 2.39816 16.7619 2.66188 17.0256C2.92561 17.2894 3.28329 17.4375 3.65625 17.4375C4.02921 17.4375 4.38689 17.2894 4.65062 17.0256C4.91434 16.7619 5.0625 16.4042 5.0625 16.0312C5.0625 15.6583 4.91434 15.3006 4.65062 15.0369C4.38689 14.7731 4.02921 14.625 3.65625 14.625C3.28329 14.625 2.92561 14.7731 2.66188 15.0369C2.39816 15.3006 2.25 15.6583 2.25 16.0312Z" stroke="#F90653" stroke-width="1.5" stroke-linecap="round" stroke-linejoin="round"/>
<path d="M9.5625 16.0312C9.5625 16.4042 9.71063 16.7619 9.9744 17.0256C10.2381 17.2894 10.5958 17.4375 10.9688 17.4375C11.3417 17.4375 11.6994 17.2894 11.9631 17.0256C12.2269 16.7619 12.375 16.4042 12.375 16.0312C12.375 15.6583 12.2269 15.3006 11.9631 15.0369C11.6994 14.7731 11.3417 14.625 10.9688 14.625C10.5958 14.625 10.2381 14.7731 9.9744 15.0369C9.71063 15.3006 9.5625 15.6583 9.5625 16.0312Z" stroke="#F90653" stroke-width="1.5" stroke-linecap="round" stroke-linejoin="round"/>
<path d="M7.3125 9.5625V2.0625" stroke="#F90653" stroke-width="1.5" stroke-linecap="round" stroke-linejoin="round"/>
<path d="M7.3125 2.0625L10.125 4.875" stroke="#F90653" stroke-width="1.5" stroke-linecap="round" stroke-linejoin="round"/>
<path d="M7.3125 2.0625L4.5 4.875" stroke="#F90653" stroke-width="1.5" stroke-linecap="round" stroke-linejoin="round"/>
</g>
<defs>
<clipPath id="clip0_2972_3500">
<rect width="18" height="18" fill="white"/>
</clipPath>
</defs>
</svg>
